# AST/ASF file generated using VICON BodyLanguage
# -----------------------------------------------
:version 1.10
:name VICON
:units
  mass 1.0
  length 0.45
  angle deg
:documentation
   .ast/.asf automatically generated from VICON data using
   VICON BodyBuilder and BodyLanguage model FoxedUp or BRILLIANT.MOD
:root
   order TX TY TZ RX RY RZ
   axis XYZ
   position 0 0 0  
   orientation 0 0 0 
:bonedata
  begin
     id 1 
     name lhipjoint
     direction 0.710188 -0.616876 0.339259 
     length 2.5669 
     axis 0 0 0  XYZ
  end
  begin
     id 2 
     name lfemur
     direction 0.34202 -0.939693 0  
     length 7.12796  
     axis 0 0 20  XYZ
    dof rx ry rz
    limits (-160.0 20.0)
           (-70.0 70.0)
           (-60.0 70.0)
  end
  begin
     id 3 
     name ltibia
     direction 0.34202 -0.939693 0   
     length 7.58108   
     axis 0 0 20   XYZ
    dof rx
    limits (-10.0 170.0)
  end
  begin
     id 4 
     name lfoot
     direction 0.0669471 -0.183936 0.980656   
     length 2.17365   
     axis -90 7.62852e-016 20   XYZ
    dof rx rz
    limits (-45.0 90.0)
           (-70.0 20.0)
  end
  begin
     id 5 
     name ltoes
     direction 1.53508e-011 -4.21705e-011 1   
     length 1.09427   
     axis -90 7.62852e-016 20   XYZ
    dof rx
    limits (-90.0 20.0)
  end
  begin
     id 6 
     name rhipjoint
     direction -0.700191 -0.625589 0.34405   
     length 2.53115  
     axis 0 0 0  XYZ 
  end
  begin
     id 7 
     name rfemur
     direction -0.34202 -0.939693 0   
     length 7.33006   
     axis 0 0 -20   XYZ
    dof rx ry rz
    limits (-160.0 20.0)
           (-70.0 70.0)
           (-70.0 60.0)
  end
  begin
     id 8 
     name rtibia
     direction -0.34202 -0.939693 0   
     length 7.64926   
     axis 0 0 -20   XYZ
    dof rx
    limits (-10.0 170.0)
 end
 begin
     id 9 
     name rfoot
     direction -0.0688927 -0.189281 0.979503   
     length 2.20493  
     axis -90 -7.62852e-016 -20   XYZ
    dof rx rz
    limits (-45.0 90.0)
           (-20.0 70.0)
  end
  begin
     id 10 
     name rtoes
     direction -1.53567e-011 -4.21933e-011 1   
     length 1.10919   
     axis -90 -7.62852e-016 -20   XYZ
    dof rx
    limits (-90.0 20.0)
  end
  begin
     id 11 
     name lowerback
     direction -0.0167868 0.989873 -0.140959   
     length 2.14596   
     axis 0 0 0   XYZ
    dof rx ry rz
    limits (-20.0 45.0)
           (-30.0 30.0)
           (-30.0 30.0)
  end
  begin
     id 12 
     name upperback
     direction 0.0129109 0.998033 0.0613525   
     length 2.10457   
     axis 0 0 0   XYZ
    dof rx ry rz
    limits (-20.0 45.0)
           (-30.0 30.0)
           (-30.0 30.0)
  end
  begin
     id 13 
     name thorax
     direction 0.0177047 0.991119 0.131797   
     length 2.17652   
     axis 0 0 0   XYZ
    dof rx ry rz
    limits (-20.0 45.0)
           (-30.0 30.0)
           (-30.0 30.0)
  end
  begin
     id 14 
     name lowerneck
     direction -0.0336893 0.997548 0.0613464   
     length 1.8912   
     axis 0 0 0   XYZ
    dof rx ry rz
    limits (-20.0 45.0)
           (-30.0 30.0)
           (-30.0 30.0)
  end
  begin
     id 15 
     name upperneck
     direction 0.0435909 0.997179 -0.0611028   
     length 1.8829   
     axis 0 0 0   XYZ
    dof rx ry rz
    limits (-20.0 45.0)
           (-30.0 30.0)
           (-30.0 30.0)
  end
  begin
     id 16
     name head
     direction 0.0175076 0.999444 -0.0283782  
     length 1.93197  
     axis 0 0 0   XYZ
    dof rx ry rz
    limits (-20.0 45.0)
           (-30.0 30.0)
           (-30.0 30.0)
  end
  begin
     id 17 
     name lclavicle
     direction 0.919164 0.389875 0.0559876  
     length 3.60004  
     axis 0 0 0   XYZ
    dof ry rz
    limits (-20.0 10.0)
           (0.0 20.0)
  end
  begin
     id 18 
     name lhumerus
     direction 1 -4.48958e-011 6.89191e-027   
     length 5.43301   
     axis 180 -30 -90   XYZ
    dof rx ry rz
    limits (-60.0 90.0)
           (-90.0 90.0)
           (-90.0 90.0)
  end
  begin
     id 19
     name lradius
     direction 1 -4.4897e-011 3.24727e-027   
     length 3.15936   
     axis 180 -30 -90   XYZ
    dof rx
    limits (-10.0 170.0)
  end
  begin
     id 20
     name lwrist
     direction 1 -4.4897e-011 9.00228e-027   
     length 1.57968   
     axis -6.29373e-015 90 90   XYZ
    dof ry
    limits (-180.0 0.0)
 end
  begin
     id 21 
     name lhand
     direction 1 -4.48968e-011 1.80042e-026   
     length 0.712827   
     axis -1.14882e-014 90 90   XYZ
    dof rx rz
    limits (-90.0 90.0)
           (-45.0 45.0)
  end
  begin
     id 22 
     name lfingers
     direction 1 -4.49019e-011 3.60267e-026   
     length 0.574699   
     axis -2.29769e-014 90 90   XYZ
    dof rx
    limits (0.0 90.0)
  end
  begin
     id 23
     name lthumb
     direction 0.707107 -6.3498e-011 0.707107   
     length 0.825157   
     axis -90 45 5.37419e-014   XYZ
    dof rx rz
    limits (-45.0 45.0)
           (-45.0 45.0)
  end
  begin
     id 24 
     name rclavicle
     direction -0.890334 0.455305 -0.00132111   
     length 3.51494  
     axis 0 0 0   XYZ 
    dof ry rz
    limits (-10.0 20.0)
           (-20.0 0.0)
  end
  begin
     id 25 
     name rhumerus
     direction -1 -4.48967e-011 5.07175e-028  
     length 5.34194   
     axis 180 30 90   XYZ
    dof rx ry rz
    limits (-90.0 60.0)
           (-90.0 90.0)
           (-90.0 90.0)
  end
  begin
     id 26 
     name rradius
     direction -1 -4.48955e-011 3.30467e-027   
     length 3.19351   
     axis 180 30 90   XYZ
    dof rx
    limits (-10.0 170.0)
  end
  begin
     id 27 
     name rwrist
     direction -1 -4.48968e-011 9.00208e-027   
     length 1.59676   
     axis -6.29373e-015 -90 -90   XYZ
    dof ry
    limits (-180.0 0.0)
  end
  begin
     id 28
     name rhand
     direction -1 -4.49e-011 1.80099e-026   
     length 0.743862   
     axis -1.14882e-014 -90 -90   XYZ
    dof rx rz
    limits (-90.0 90.0)
           (-45.0 45.0)
  end
  begin
     id 29
     name rfingers
     direction -1 -4.49009e-011 3.6023e-026   
     length 0.599721   
     axis -2.29769e-014 -90 -90   XYZ
    dof rx
    limits (0.0 90.0)
  end
  begin
     id 30
     name rthumb
     direction -0.707107 -6.35025e-011 0.707107   
     length 0.861083   
     axis -90 -45 -5.37419e-014   XYZ
    dof rx rz
    limits (-45.0 45.0)
           (-45.0 45.0)
  end
:hierarchy
  begin
    root lhipjoint rhipjoint lowerback
    lhipjoint lfemur
    lfemur ltibia
    ltibia lfoot
    lfoot ltoes
    rhipjoint rfemur
    rfemur rtibia
    rtibia rfoot
    rfoot rtoes
    lowerback upperback
    upperback thorax
    thorax lowerneck lclavicle rclavicle
    lowerneck upperneck
    upperneck head
    lclavicle lhumerus
    lhumerus lradius
    lradius lwrist
    lwrist lhand lthumb
    lhand lfingers
    rclavicle rhumerus
    rhumerus rradius
    rradius rwrist
    rwrist rhand rthumb
    rhand rfingers
  end

#!OML:ASF H:\Martial Arts Walks\Project 1\Capture day 1\Session 1\male.ASF
:FULLY-SPECIFIED
:DEGREES
538
root -0.27585 14.2116 -1.6189 3.73272 -29.7305 -10.0396
lowerback 13.8324 2.10923 2.86865
upperback -1.23887 3.48871 2.25169
thorax -9.08755 1.59533 0.0510294
lowerneck -5.6873 5.85854 1.23655
upperneck 6.24318 7.60953 1.69637
head 2.96393 3.8694 0.661371
rclavicle 2.54196e-014 7.95139e-015
rhumerus -75.3961 20.2315 -96.7137
rradius 117.643
rwrist -80.8568
rhand -30.9849 -43.7773
rfingers 7.12502
rthumb -4.26858 -73.7143
lclavicle 2.54196e-014 7.95139e-015
lhumerus 54.136 12.3011 81.667
lradius 16.5801
lwrist -56.2991
lhand -28.9041 49.845
lfingers 7.12502
lthumb -2.25907 79.8128
rfemur -5.28658 -3.8959 15.61
rtibia 60.4786
rfoot -34.3744 -30.9067
rtoes -14.83
lfemur -47.8342 15.1227 3.10291
ltibia 38.2099
lfoot 20.5341 2.31298
ltoes -0.880294
539
root -0.224841 14.1545 -1.44395 3.95572 -29.892 -9.74661
lowerback 13.7064 2.10718 2.52685
upperback -1.28752 3.44335 2.45087
thorax -9.10242 1.59618 0.469787
lowerneck -5.52854 6.00525 1.26472
upperneck 5.85439 7.83541 1.33217
head 2.81804 3.96761 0.53443
rclavicle 2.50593e-014 2.38542e-015
rhumerus -77.3784 20.9767 -97.8697
rradius 118.381
rwrist -74.6105
rhand -30.2084 -47.6334
rfingers 7.12502
rthumb -3.51869 -77.5841
lclavicle 2.50593e-014 2.38542e-015
lhumerus 55.0134 14.5293 84.8573
lradius 16.155
lwrist -61.8069
lhand -26.8761 46.6056
lfingers 7.12502
lthumb -0.300403 76.5852
rfemur -5.29484 -3.81328 14.8704
rtibia 60.6345
rfoot -34.2471 -31.5402
rtoes -14.3708
lfemur -49.4964 16.0548 2.00427
ltibia 40.7442
lfoot 19.1591 1.36988
ltoes -2.71551
540
root -0.181763 14.098 -1.28525 4.2386 -29.8189 -9.57992
lowerback 13.6233 2.058 2.25228
upperback -1.32943 3.34992 2.66853
thorax -9.131 1.571 0.879538
lowerneck -5.3957 6.13963 1.25874
upperneck 5.46638 8.04419 0.974316
head 2.67759 4.05793 0.416058
rclavicle -1.77291e-014 -7.35503e-015
rhumerus -78.8883 21.4557 -98.8461
rradius 118.745
rwrist -70.8583
rhand -29.3026 -49.4035
rfingers 7.12502
rthumb -2.64392 -79.3669
lclavicle -1.77291e-014 -7.35503e-015
lhumerus 55.5501 15.8197 86.7024
lradius 16.1346
lwrist -63.8715
lhand -26.022 43.4057
lfingers 7.12502
lthumb 0.524481 73.3848
rfemur -5.30906 -4.01742 14.321
rtibia 60.7925
rfoot -34.1802 -32.1136
rtoes -13.6094
lfemur -51.2855 16.8979 0.99601
ltibia 43.1676
lfoot 17.9912 0.457786
ltoes -3.88425
541
root -0.143895 14.0456 -1.13964 4.50394 -29.5915 -9.52747
lowerback 13.6392 1.96498 2.08826
upperback -1.33805 3.21749 2.87171
thorax -9.17111 1.52082 1.21745
lowerneck -5.29139 6.25786 1.24449
upperneck 5.0628 8.22597 0.665082
head 2.53635 4.13731 0.314429
rclavicle 4.83668e-014 -2.18663e-015
rhumerus -79.8413 21.6813 -99.4701
rradius 118.827
rwrist -69.9498
rhand -28.7159 -49.2573
rfingers 7.12502
rthumb -2.07731 -79.2269
lclavicle 4.83668e-014 -2.18663e-015
lhumerus 55.596 16.0513 86.8273
lradius 16.3994
lwrist -62.7511
lhand -26.0062 40.8683
lfingers 7.12502
lthumb 0.539754 70.8473
rfemur -5.21113 -4.44259 13.9081
rtibia 60.8766
rfoot -34.1816 -32.5535
rtoes -12.6147
lfemur -53.0022 17.6637 0.0771251
ltibia 45.4355
lfoot 16.86 -0.347895
ltoes -4.23233
542
root -0.108534 14.0003 -1.00308 4.69845 -29.3171 -9.56646
lowerback 13.7812 1.84647 2.0411
upperback -1.30578 3.07065 3.04442
thorax -9.22904 1.45645 1.45729
lowerneck -5.19192 6.36334 1.23079
upperneck 4.64238 8.38387 0.432355
head 2.38825 4.20807 0.23579
rclavicle -4.846e-014 -6.65929e-015
rhumerus -80.2544 21.7175 -99.7093
rradius 118.713
rwrist -71.1055
rhand -28.2753 -48.0632
rfingers 7.12502
rthumb -1.65184 -78.0366
lclavicle -4.846e-014 -6.65929e-015
lhumerus 55.3568 15.6549 85.8918
lradius 16.7727
lwrist -60.1911
lhand -26.4286 39.001
lfingers 7.12502
lthumb 0.131769 68.9807
rfemur -4.92701 -4.96738 13.5647
rtibia 60.8087
rfoot -34.2016 -32.8216
rtoes -11.5972
lfemur -54.4693 18.3671 -0.733555
ltibia 47.5131
lfoot 15.6872 -1.16197
ltoes -4.34748
543
root -0.0738353 13.9673 -0.871648 4.81133 -29.0669 -9.66286
lowerback 14.0226 1.71695 2.10646
upperback -1.23942 2.92644 3.1723
thorax -9.29735 1.38596 1.58356
lowerneck -5.08667 6.45935 1.2338
upperneck 4.23421 8.5221 0.276076
head 2.24153 4.27224 0.177715
rclavicle -1.18028e-016 -3.97569e-015
rhumerus -80.2376 21.6214 -99.6872
rradius 118.437
rwrist -72.8882
rhand -27.7521 -46.732
rfingers 7.12502
rthumb -1.14652 -76.7087
lclavicle -1.18028e-016 -3.97569e-015
lhumerus 55.0708 15.0652 84.615
lradius 17.1249
lwrist -57.8742
lhand -26.8789 37.8234
lfingers 7.12502
lthumb -0.303147 67.803
rfemur -4.42859 -5.48833 13.2279
rtibia 60.5169
rfoot -34.1602 -32.9157
rtoes -10.8221
lfemur -55.6345 19.0129 -1.42981
ltibia 49.3894
lfoot 14.5208 -1.89176
ltoes -4.3766
544
root -0.0387337 13.9455 -0.742594 4.91642 -28.9076 -9.82216
lowerback 14.2812 1.60201 2.27878
upperback -1.16658 2.81771 3.26444
thorax -9.36135 1.32598 1.60387
lowerneck -4.97522 6.5483 1.26005
upperneck 3.88878 8.64513 0.184395
head 2.11342 4.33136 0.136661
rclavicle -4.72238e-014 1.73937e-014
rhumerus -79.935 21.4346 -99.5169
rradius 118.063
rwrist -74.3434
rhand -27.1877 -45.6848
rfingers 7.12502
rthumb -0.601362 -75.6637
lclavicle -4.72238e-014 1.73937e-014
lhumerus 54.8632 14.5546 83.4726
lradius 17.4003
lwrist -56.7828
lhand -26.9312 37.3961
lfingers 7.12502
lthumb -0.353642 67.3756
rfemur -3.7954 -5.90561 12.892
rtibia 59.984
rfoot -33.9742 -32.8738
rtoes -10.5121
lfemur -56.557 19.6499 -1.99475
ltibia 51.0779
lfoot 13.3878 -2.49433
ltoes -4.3057
545
root -0.00327658 13.9312 -0.614957 5.0933 -28.8668 -10.0776
lowerback 14.4844 1.51801 2.55552
upperback -1.10508 2.76638 3.34625
thorax -9.40158 1.28817 1.54321
lowerneck -4.8805 6.63029 1.30284
upperneck 3.65508 8.75457 0.148224
head 2.02382 4.38555 0.112928
rclavicle 1.83192e-014 -1.33186e-014
rhumerus -79.4558 21.1977 -99.2526
rradius 117.667
rwrist -75.1208
rhand -26.7086 -44.9867
rfingers 7.12502
rthumb -0.138674 -74.9664
lclavicle 1.83192e-014 -1.33186e-014
lhumerus 54.8137 14.3098 82.8002
lradius 17.5564
lwrist -57.2712
lhand -26.5258 37.5195
lfingers 7.12502
lthumb 0.0378855 67.4993
rfemur -3.11601 -6.16677 12.6014
rtibia 59.229
rfoot -33.6019 -32.7447
rtoes -10.763
lfemur -57.3266 20.3215 -2.40551
ltibia 52.6138
lfoot 12.2998 -2.94006
ltoes -4.08194
546
root 0.0320989 13.9217 -0.48889 5.38715 -28.92 -10.4175
lowerback 14.5837 1.4724 2.90664
upperback -1.0794 2.77755 3.43382
thorax -9.41933 1.27707 1.43528
lowerneck -4.77676 6.69706 1.34117
upperneck 3.53303 8.84208 0.159083
head 1.96693 4.43001 0.10593
rclavicle 9.12546e-015 -1.39149e-014
rhumerus -78.9174 20.9348 -98.9314
rradius 117.317
rwrist -75.1786
rhand -26.3729 -44.5444
rfingers 7.12502
rthumb 0.185587 -74.524
lclavicle 9.12546e-015 -1.39149e-014
lhumerus 54.9172 14.3552 82.7166
lradius 17.5811
lwrist -59.0469
lhand -25.8585 37.8989
lfingers 7.12502
lthumb 0.682456 67.8776
rfemur -2.46605 -6.30934 12.3611
rtibia 58.3006
rfoot -33.036 -32.5805
rtoes -11.5637
lfemur -58.0383 21.0333 -2.69877
ltibia 54.0282
lfoot 11.2581 -3.24734
ltoes -3.69203
547
root 0.0665726 13.9147 -0.365442 5.80548 -29.0389 -10.8212
lowerback 14.5728 1.46312 3.28676
upperback -1.09269 2.84034 3.53724
thorax -9.41646 1.29007 1.31908
lowerneck -4.67686 6.74778 1.37071
upperneck 3.5091 8.90764 0.196381
head 1.94111 4.46412 0.110229
rclavicle 1.11816e-014 2.80783e-014
rhumerus -78.3963 20.6976 -98.5856
rradius 117.043
rwrist -74.6995
rhand -26.1504 -44.2378
rfingers 7.12502
rthumb 0.400459 -74.2172
lclavicle 1.11816e-014 2.80783e-014
lhumerus 55.1159 14.5745 83.0479
lradius 17.5109
lwrist -61.2872
lhand -25.2613 38.4779
lfingers 7.12502
lthumb 1.25924 68.4539
rfemur -1.88739 -6.36614 12.1756
rtibia 57.2566
rfoot -32.3376 -32.3991
rtoes -12.7312
lfemur -58.7468 21.778 -2.90958
ltibia 55.3412
lfoot 10.2664 -3.44864
ltoes -3.1567
548
root 0.0993949 13.9099 -0.245488 6.29904 -29.1868 -11.2456
lowerback 14.4834 1.48249 3.65394
upperback -1.13344 2.93661 3.64983
thorax -9.39941 1.32031 1.21464
lowerneck -4.57652 6.78232 1.39412
upperneck 3.54056 8.9513 0.250688
head 1.93208 4.48768 0.12132
rclavicle 1.12344e-014 7.85199e-015
rhumerus -77.9192 20.5065 -98.2462
rradius 116.803
rwrist -73.9859
rhand -25.8832 -43.8676
rfingers 7.12502
rthumb 0.658551 -73.8463
lclavicle 1.12344e-014 7.85199e-015
lhumerus 55.3732 14.8565 83.6587
lradius 17.3838
lwrist -63.2672
lhand -24.96 39.2261
lfingers 7.12502
lthumb 1.55017 69.2002
rfemur -1.36871 -6.38704 12.0187
rtibia 56.1495
rfoot -31.597 -32.1874
rtoes -14.0215
lfemur -59.443 22.5192 -3.07849
ltibia 56.552
lfoot 9.33023 -3.58013
ltoes -2.5153
549
root 0.129868 13.9071 -0.130792 6.81559 -29.334 -11.6478
lowerback 14.3608 1.51993 3.96111
upperback -1.19042 3.04513 3.76604
thorax -9.38358 1.35964 1.14639
lowerneck -4.47985 6.80397 1.41661
upperneck 3.59325 8.97778 0.304064
head 1.93058 4.50267 0.132374
rclavicle -1.22563e-014 -6.85807e-015
rhumerus -77.5043 20.3867 -97.9341
rradius 116.548
rwrist -73.3299
rhand -25.4844 -43.3084
rfingers 7.12502
rthumb 1.0437 -73.2856
lclavicle -1.22563e-014 -6.85807e-015
lhumerus 55.6164 15.0588 84.2645
lradius 17.2388
lwrist -64.3632
lhand -25.0307 39.9427
lfingers 7.12502
lthumb 1.48192 69.9173
rfemur -0.895692 -6.40567 11.8686
rtibia 55.0254
rfoot -30.8895 -31.9459
rtoes -15.2332
lfemur -60.1121 23.2232 -3.24187
ltibia 57.6527
lfoot 8.47035 -3.68341
ltoes -1.83915
550
root 0.157154 13.9067 -0.022648 7.30822 -29.4743 -11.9921
lowerback 14.2377 1.56854 4.16599
upperback -1.24909 3.15006 3.87781
thorax -9.3737 1.40237 1.13206
lowerneck -4.39051 6.82207 1.44088
upperneck 3.63662 8.99951 0.353517
head 1.9276 4.51517 0.14183
rclavicle -3.70392e-014 -8.07563e-015
rhumerus -77.1491 20.3556 -97.6786
rradius 116.236
rwrist -72.8458
rhand -24.919 -42.6052
rfingers 7.12502
rthumb 1.58983 -72.579
lclavicle -3.70392e-014 -8.07563e-015
lhumerus 55.7992 15.1083 84.671
lradius 17.1169
lwrist -64.3803
lhand -25.3364 40.3831
lfingers 7.12502
lthumb 1.18665 70.3595
rfemur -0.454281 -6.4348 11.702
rtibia 53.9185
rfoot -30.2774 -31.6617
rtoes -16.2215
lfemur -60.7268 23.8727 -3.41911
ltibia 58.6378
lfoot 7.6897 -3.78724
ltoes -1.13497
